# xmcd CD database file
#
# Track frame offsets:
#	150
#	3064
#	25552
#	40939
#	53532
#	75617
#	93104
#	111998
#	126927
#	148768
#	168735
#	194494
#	210685
#	236709
#	252662
#	272524
#	293391
#	314066
#
# Disc length: 4617 seconds
#
# Revision: 0
# Processed by: cddbd v1.5.2PL0 Copyright (c) Steve Scherf et al.
# Submitted via: CDex 1.70beta2
#
DISCID=fa120712
DTITLE=Various Artist - The Nightfly 10  Cd 3 - Oceans
DYEAR=2006
DGENRE=New Age
TTITLE0=Sample Audio - Pacific (Efx)
TTITLE1=Gotan Project Ft Cristina Vilallonga - La Viguela
TTITLE2=Chambao - Pokito A Poko
TTITLE3=Bossa Nostra - Roxanne Nao Ligar (Roxanne)
TTITLE4=Richard Galliano - Historia De Un Amor
TTITLE5=Lura - Padoce Do Ceu Azul
TTITLE6=Mystic Diversions - From The Distance
TTITLE7=Raul Midon - State Of Mind
TTITLE8=Groove Lovers - Capri (The Nightfly Edit Mix)
TTITLE9=Sara Tavares - Balance'
TTITLE10=Dario Boente and Huge In Japan - Electric Heart
TTITLE11=Nicky Nicolai - E La Chiamano Estate (Ltn Machine Remix)
TTITLE12=Christophe Goze - Close To You
TTITLE13=Marcio Faraco - Cidade
TTITLE14=Kantango - Ocho Electronico
TTITLE15=Sofa Rock Ft Sara 6 - Imagine
TTITLE16=Cesare Picco - My Room
TTITLE17=Yasmin Levy - Naci En Alamo (Vengo)
EXTD=YEAR: 2006
EXTT0=
EXTT1=
EXTT2=
EXTT3=
EXTT4=
EXTT5=
EXTT6=
EXTT7=
EXTT8=
EXTT9=
EXTT10=
EXTT11=
EXTT12=
EXTT13=
EXTT14=
EXTT15=
EXTT16=
EXTT17=
PLAYORDER=
